<svg xmlns="http://www.w3.org/2000/svg" viewBox="0 0 200 200" fill="none" stroke="rgba(168, 137, 104, 0.75)" strokeWidth="1">
  <!-- 顶部菱形星芒 -->
  <path d="M100 8 L109 28 L100 36 L91 28 Z" fill="rgba(168, 137, 104, 0.4)" />
  <circle cx="100" cy="22" r="1.5" fill="rgba(168, 137, 104, 0.7)" />
  
  <!-- 顶部叶子 -->
  <path d="M88 34 Q80 26 Q86 20 Q98 24 Q100 32 Q92 36 Z" />
  <path d="M112 34 Q120 26 Q114 20 Q102 24 Q100 32 Q108 36 Z" />
  
  <!-- 顶部圆点 -->
  <circle cx="66" cy="34" r="2.5" fill="rgba(168, 137, 104, 0.6)" />
  <circle cx="134" cy="34" r="2.5" fill="rgba(168, 137, 104, 0.6)" />
  
  <!-- 外圈双圆 -->
  <circle cx="100" cy="100" r="70" />
  <circle cx="100" cy="100" r="64" />
  
  <!-- 圆环虚线装饰 -->
  <path d="M54 62 Q48 76 Q54 90" strokeDasharray="2 3" />
  <path d="M146 62 Q152 76 Q146 90" strokeDasharray="2 3" />
  <path d="M54 138 Q48 124 Q54 110" strokeDasharray="2 3" />
  <path d="M146 138 Q152 124 Q146 110" strokeDasharray="2 3" />
  
  <!-- 左侧主藤蔓 -->
  <path d="M54 70 Q36 54 Q26 42 Q34 36 Q52 38 Q68 52 Q78 68" />
  <path d="M54 130 Q36 146 Q26 158 Q34 164 Q52 162 Q68 148 Q78 132" />
  
  <!-- 左侧叶子 -->
  <path d="M26 50 Q18 42 Q26 34 Q38 38 Q42 50 Q32 54 Z" />
  <path d="M40 36 Q32 24 Q44 16 Q58 22 Q62 34 Q50 40 Z" />
  <path d="M58 68 Q48 56 Q60 46 Q76 54 Q78 68 Q66 74 Z" />
  <path d="M58 132 Q48 144 Q60 154 Q76 146 Q78 132 Q66 126 Z" />
  <path d="M40 164 Q32 176 Q44 184 Q58 178 Q62 166 Q50 160 Z" />
  <path d="M26 150 Q18 158 Q26 166 Q38 162 Q42 150 Q32 146 Z" />
  
  <!-- 左侧卷曲装饰 -->
  <path d="M72 136 Q62 146 Q56 154 Q62 160 Q74 154 Q80 142" />
  <path d="M72 64 Q62 54 Q56 46 Q62 40 Q74 46 Q80 58" />
  
  <!-- 右侧主藤蔓 -->
  <path d="M146 70 Q164 54 Q174 42 Q166 36 Q148 38 Q132 52 Q122 68" />
  <path d="M146 130 Q164 146 Q174 158 Q166 164 Q148 162 Q132 148 Q122 132" />
  
  <!-- 右侧叶子 -->
  <path d="M174 50 Q182 42 Q174 34 Q162 38 Q158 50 Q168 54 Z" />
  <path d="M160 36 Q168 24 Q156 16 Q142 22 Q138 34 Q150 40 Z" />
  <path d="M142 68 Q152 56 Q140 46 Q124 54 Q122 68 Q134 74 Z" />
  <path d="M142 132 Q152 144 Q140 154 Q124 146 Q122 132 Q134 126 Z" />
  <path d="M160 164 Q168 176 Q156 184 Q142 178 Q138 166 Q150 160 Z" />
  <path d="M174 150 Q182 158 Q174 166 Q162 162 Q158 150 Q168 146 Z" />
  
  <!-- 右侧卷曲装饰 -->
  <path d="M128 136 Q138 146 Q144 154 Q138 160 Q126 154 Q120 142" />
  <path d="M128 64 Q138 54 Q144 46 Q138 40 Q126 46 Q120 58" />
  
  <!-- 底部装饰圆点 -->
  <circle cx="66" cy="166" r="2.5" fill="rgba(168, 137, 104, 0.6)" />
  <circle cx="134" cy="166" r="2.5" fill="rgba(168, 137, 104, 0.6)" />
  
  <!-- 底部叶子 -->
  <path d="M88 166 Q80 174 Q86 180 Q98 176 Q100 168 Q92 164 Z" />
  <path d="M112 166 Q120 174 Q114 180 Q102 176 Q100 168 Q108 164 Z" />
  
  <!-- 底部菱形星芒 -->
  <path d="M100 178 L109 158 L100 150 L91 158 Z" fill="rgba(168, 137, 104, 0.4)" />
  <circle cx="100" cy="164" r="1.5" fill="rgba(168, 137, 104, 0.7)" />
  <circle cx="100" cy="172" r="1" fill="rgba(168, 137, 104, 0.5)" />
  <circle cx="100" cy="176" r="0.8" fill="rgba(168, 137, 104, 0.4)" />
  
  <!-- 中心交织字母 TR -->
  <path d="M82 60 L118 60" strokeWidth="2.5" />
  <path d="M100 60 L100 150" strokeWidth="2.5" />
  <path d="M100 78 L128 78 L128 96 Q128 118 Q110 128 Q98 134 Q98 144" strokeWidth="2.5" />
  <path d="M98 96 L118 96" strokeWidth="2" />
</svg>